TITLE ""
FILE "1Q_t_0369-0377.mp3" MP3
  TRACK 01 AUDIO
    TITLE "1Q_t_0369-0377_01"
    INDEX 01 00:00:00
  TRACK 02 AUDIO
    TITLE "1Q_t_0369-0377_02"
    INDEX 01 00:00:67
  TRACK 03 AUDIO
    TITLE "1Q_t_0369-0377_03"
    INDEX 01 00:01:08
  TRACK 04 AUDIO
    TITLE "1Q_t_0369-0377_04"
    INDEX 01 00:03:15
  TRACK 05 AUDIO
    TITLE "1Q_t_0369-0377_05"
    INDEX 01 00:03:28
  TRACK 06 AUDIO
    TITLE "1Q_t_0369-0377_06"
    INDEX 01 00:08:69
  TRACK 07 AUDIO
    TITLE "1Q_t_0369-0377_07"
    INDEX 01 00:09:48
  TRACK 08 AUDIO
    TITLE "1Q_t_0369-0377_08"
    INDEX 01 00:10:71
  TRACK 09 AUDIO
    TITLE "1Q_t_0369-0377_09"
    INDEX 01 00:11:20
  TRACK 10 AUDIO
    TITLE "1Q_t_0369-0377_10"
    INDEX 01 00:14:61
  TRACK 11 AUDIO
    TITLE "1Q_t_0369-0377_11"
    INDEX 01 00:15:00
  TRACK 12 AUDIO
    TITLE "1Q_t_0369-0377_12"
    INDEX 01 00:21:24
  TRACK 13 AUDIO
    TITLE "1Q_t_0369-0377_13"
    INDEX 01 00:22:04
  TRACK 14 AUDIO
    TITLE "1Q_t_0369-0377_14"
    INDEX 01 00:23:15
  TRACK 15 AUDIO
    TITLE "1Q_t_0369-0377_15"
    INDEX 01 00:23:33
  TRACK 16 AUDIO
    TITLE "1Q_t_0369-0377_16"
    INDEX 01 00:26:35
  TRACK 17 AUDIO
    TITLE "1Q_t_0369-0377_17"
    INDEX 01 00:26:49
  TRACK 18 AUDIO
    TITLE "1Q_t_0369-0377_18"
    INDEX 01 00:33:04
  TRACK 19 AUDIO
    TITLE "1Q_t_0369-0377_19"
    INDEX 01 00:33:57
  TRACK 20 AUDIO
    TITLE "1Q_t_0369-0377_20"
    INDEX 01 00:35:18
  TRACK 21 AUDIO
    TITLE "1Q_t_0369-0377_21"
    INDEX 01 00:35:32
  TRACK 22 AUDIO
    TITLE "1Q_t_0369-0377_22"
    INDEX 01 00:37:39
  TRACK 23 AUDIO
    TITLE "1Q_t_0369-0377_23"
    INDEX 01 00:37:55
  TRACK 24 AUDIO
    TITLE "1Q_t_0369-0377_24"
    INDEX 01 00:44:15
  TRACK 25 AUDIO
    TITLE "1Q_t_0369-0377_25"
    INDEX 01 00:44:70
  TRACK 26 AUDIO
    TITLE "1Q_t_0369-0377_26"
    INDEX 01 00:46:06
  TRACK 27 AUDIO
    TITLE "1Q_t_0369-0377_27"
    INDEX 01 00:46:20
  TRACK 28 AUDIO
    TITLE "1Q_t_0369-0377_28"
    INDEX 01 00:48:58
  TRACK 29 AUDIO
    TITLE "1Q_t_0369-0377_29"
    INDEX 01 00:48:72
  TRACK 30 AUDIO
    TITLE "1Q_t_0369-0377_30"
    INDEX 01 00:53:73
  TRACK 31 AUDIO
    TITLE "1Q_t_0369-0377_31"
    INDEX 01 00:54:51
  TRACK 32 AUDIO
    TITLE "1Q_t_0369-0377_32"
    INDEX 01 00:55:64
  TRACK 33 AUDIO
    TITLE "1Q_t_0369-0377_33"
    INDEX 01 00:56:05
  TRACK 34 AUDIO
    TITLE "1Q_t_0369-0377_34"
    INDEX 01 00:58:35
  TRACK 35 AUDIO
    TITLE "1Q_t_0369-0377_35"
    INDEX 01 00:58:51
  TRACK 36 AUDIO
    TITLE "1Q_t_0369-0377_36"
    INDEX 01 01:03:23
  TRACK 37 AUDIO
    TITLE "1Q_t_0369-0377_37"
    INDEX 01 01:04:01
  TRACK 38 AUDIO
    TITLE "1Q_t_0369-0377_38"
    INDEX 01 01:05:18
  TRACK 39 AUDIO
    TITLE "1Q_t_0369-0377_39"
    INDEX 01 01:05:70
  TRACK 40 AUDIO
    TITLE "1Q_t_0369-0377_40"
    INDEX 01 01:07:13
  TRACK 41 AUDIO
    TITLE "1Q_t_0369-0377_41"
    INDEX 01 01:07:30
  TRACK 42 AUDIO
    TITLE "1Q_t_0369-0377_42"
    INDEX 01 01:09:27
  TRACK 43 AUDIO
    TITLE "1Q_t_0369-0377_43"
    INDEX 01 01:09:41
  TRACK 44 AUDIO
    TITLE "1Q_t_0369-0377_44"
    INDEX 01 01:15:57
  TRACK 45 AUDIO
    TITLE "1Q_t_0369-0377_45"
    INDEX 01 01:16:35
  TRACK 46 AUDIO
    TITLE "1Q_t_0369-0377_46"
    INDEX 01 01:17:56
  TRACK 47 AUDIO
    TITLE "1Q_t_0369-0377_47"
    INDEX 01 01:17:70
  TRACK 48 AUDIO
    TITLE "1Q_t_0369-0377_48"
    INDEX 01 01:21:32
  TRACK 49 AUDIO
    TITLE "1Q_t_0369-0377_49"
    INDEX 01 01:21:46
  TRACK 50 AUDIO
    TITLE "1Q_t_0369-0377_50"
    INDEX 01 01:25:63
  TRACK 51 AUDIO
    TITLE "1Q_t_0369-0377_51"
    INDEX 01 01:26:45
  TRACK 52 AUDIO
    TITLE "1Q_t_0369-0377_52"
    INDEX 01 01:27:56
  TRACK 53 AUDIO
    TITLE "1Q_t_0369-0377_53"
    INDEX 01 01:27:72
  TRACK 54 AUDIO
    TITLE "1Q_t_0369-0377_54"
    INDEX 01 01:30:45
  TRACK 55 AUDIO
    TITLE "1Q_t_0369-0377_55"
    INDEX 01 01:30:59
  TRACK 56 AUDIO
    TITLE "1Q_t_0369-0377_56"
    INDEX 01 01:34:70
